<?xml version="1.0" encoding="UTF-8" standalone="no"?>
<!-- Created with Inkscape (http://www.inkscape.org/) -->

<svg
   xmlns:dc="http://purl.org/dc/elements/1.1/"
   xmlns:cc="http://creativecommons.org/ns#"
   xmlns:rdf="http://www.w3.org/1999/02/22-rdf-syntax-ns#"
   xmlns:svg="http://www.w3.org/2000/svg"
   xmlns="http://www.w3.org/2000/svg"
   xmlns:sodipodi="http://sodipodi.sourceforge.net/DTD/sodipodi-0.dtd"
   xmlns:inkscape="http://www.inkscape.org/namespaces/inkscape"
   width="3609"
   height="2569"
   viewBox="0 0 954.8813 679.71458"
   version="1.1"
   id="svg8"
   inkscape:version="0.92.0 r15299"
   sodipodi:docname="cert-placeholder.svg">
  <defs
     id="defs2" />
  <sodipodi:namedview
     id="base"
     pagecolor="#ffffff"
     bordercolor="#666666"
     borderopacity="1.0"
     inkscape:pageopacity="0.0"
     inkscape:pageshadow="2"
     inkscape:zoom="0.24748738"
     inkscape:cx="1777.2785"
     inkscape:cy="1403.1852"
     inkscape:document-units="mm"
     inkscape:current-layer="layer1"
     showgrid="false"
     fit-margin-top="0"
     fit-margin-left="0"
     fit-margin-right="0"
     fit-margin-bottom="0"
     inkscape:window-width="1920"
     inkscape:window-height="1017"
     inkscape:window-x="2812"
     inkscape:window-y="226"
     inkscape:window-maximized="1"
     units="px" />
  <metadata
     id="metadata5">
    <rdf:RDF>
      <cc:Work
         rdf:about="">
        <dc:format>image/svg+xml</dc:format>
        <dc:type
           rdf:resource="http://purl.org/dc/dcmitype/StillImage" />
        <dc:title />
      </cc:Work>
    </rdf:RDF>
  </metadata>
  <g
     inkscape:label="Layer 1"
     inkscape:groupmode="layer"
     id="layer1"
     transform="translate(-30.258007,495.32852)">
    <rect
       style="opacity:1;fill:#b31117;fill-opacity:1;fill-rule:nonzero;stroke:none;stroke-width:26.55192947;stroke-linecap:round;stroke-linejoin:round;stroke-miterlimit:4;stroke-dasharray:none;stroke-dashoffset:0;stroke-opacity:1;paint-order:normal"
       id="rect4496"
       width="954.88123"
       height="679.7146"
       x="30.258007"
       y="-495.32852" />
    <rect
       style="opacity:1;fill:#ffffff;fill-opacity:1;fill-rule:nonzero;stroke:none;stroke-width:501.53692627;stroke-linecap:round;stroke-linejoin:round;stroke-miterlimit:4;stroke-dasharray:none;stroke-dashoffset:0;stroke-opacity:1;paint-order:normal"
       id="rect4498"
       width="872.26782"
       height="591.19647"
       x="69.962921"
       y="-453.25854"
       ry="10.663246" />
    <path
       style="fill:#000000;stroke-width:0.26458335"
       d="m 468.53204,-375.14275 c -1.84951,0.0339 -3.52897,0.13643 -4.80512,0.31833 -10.55015,1.50382 -17.67411,4.34714 -23.38623,9.33034 -3.45313,3.01247 -7.08134,7.10306 -9.52518,10.74086 -1.30779,1.94687 -4.26177,7.52357 -4.26177,8.04605 0,0.13193 -0.22322,0.70852 -0.49671,1.28156 -0.78131,1.63697 -2.09251,6.83518 -2.56034,10.15086 -0.78833,5.58433 -0.31388,13.50435 1.08121,18.01029 0.3379,1.09141 0.75311,2.50543 0.91933,3.14214 0.62279,2.3832 2.95475,7.1429 5.214,10.63934 2.13781,3.3085 6.86902,8.70544 9.50324,10.83966 1.14491,0.92756 2.14183,1.76248 2.21458,1.85508 0.0727,0.0926 0.60885,0.47867 1.19097,0.85894 0.58209,0.38029 1.59265,1.07264 2.24752,1.53676 1.04191,0.7385 2.72467,1.74006 3.97089,2.36827 6.9591,3.50785 12.56348,5.2789 19.18209,6.05648 1.30965,0.15389 2.73855,0.32952 3.17504,0.38969 1.33892,0.18448 9.93508,-0.0846 12.0389,-0.37596 5.90578,-0.81801 13.51385,-3.28742 18.40822,-5.97691 1.58876,-0.87302 2.75793,-1.1585 2.75793,-0.67233 0,0.25688 2.29398,1.39596 4.36606,2.16794 4.71285,1.75583 12.49171,2.15848 18.98174,0.98242 l 1.7865,-0.32382 0.003,-6.62455 c 10e-4,-3.64282 0.0824,-6.91762 0.17836,-7.27765 0.13868,-0.51874 -0.12646,-0.34355 -1.28703,0.84521 -0.83495,0.85524 -1.79506,1.57268 -2.23104,1.66849 -1.32957,0.29235 -2.22008,0.70935 -2.22008,1.03731 0,0.57654 -1.89074,2.53662 -2.82106,2.92534 -1.72062,0.71893 -3.25219,0.7594 -5.11523,0.13446 -2.33789,-0.78421 -3.4559,-1.49399 -3.25463,-2.0664 0.087,-0.24733 0.84046,-1.35382 1.67396,-2.45881 1.95656,-2.59364 3.98001,-5.96494 5.16188,-8.60038 0.5157,-1.15004 1.03416,-2.26801 1.15257,-2.48627 0.32442,-0.59891 2.05504,-6.29678 2.37101,-7.80454 1.01955,-4.86433 1.29029,-12.23385 0.60647,-16.53666 -0.92549,-5.82356 -3.48143,-13.54244 -5.35946,-16.18265 -0.27508,-0.38628 -0.49945,-0.8157 -0.49945,-0.955 0,-0.45093 -2.68796,-4.36059 -4.77218,-6.94287 -2.11885,-2.62517 -5.26434,-5.72489 -8.19424,-8.07623 -2.30816,-1.85237 -8.51568,-5.94398 -9.0175,-5.94398 -0.1242,0 -1.19993,-0.47626 -2.39297,-1.05927 -2.49343,-1.21847 -6.83909,-2.76181 -8.96261,-3.18329 -0.80038,-0.15888 -1.75202,-0.39951 -2.11578,-0.53237 -2.28203,-0.83347 -9.35805,-1.34757 -14.9066,-1.24588 z m 129.73565,0.38419 -7.4725,0.17014 c -4.11098,0.094 -16.28669,0.24139 -27.05525,0.32657 -10.76856,0.0852 -19.72715,0.20134 -19.9093,0.25795 -0.23047,0.0716 -0.33205,0.78211 -0.33205,2.34082 v 2.23653 l 3.94893,-0.0384 c 3.40093,-0.0337 4.02,0.0246 4.45386,0.41711 0.27715,0.25065 0.62342,0.45555 0.76838,0.45555 0.33764,0 1.2481,0.99811 1.69044,1.85234 0.26658,0.51622 0.33063,3.18663 0.28815,12.1706 -0.0297,6.33022 -0.10637,11.86577 -0.1674,12.30233 -0.0611,0.43656 -0.18468,10.67541 -0.27441,22.75231 l -0.16192,21.95648 -0.59,1.18276 c -0.67156,1.34655 -2.34097,2.48879 -4.0642,2.7799 -0.9224,0.15584 -1.11316,0.31345 -1.45991,1.19648 -0.53456,1.36083 -2.2049,2.55118 -3.90778,2.78537 l -1.31722,0.18113 v 2.77989 c 0,2.35874 0.0601,2.76033 0.39517,2.63171 0.2174,-0.0835 8.94038,-0.1852 19.38241,-0.22503 10.44203,-0.0397 22.52568,-0.10682 26.85491,-0.15093 l 7.87317,-0.0824 v -2.77165 -2.77167 l -3.90228,0.0411 c -4.2721,0.0449 -5.21458,-0.1694 -6.405,-1.45992 -0.51501,-0.55836 -0.6736,-1.05901 -0.76016,-2.4204 -0.10736,-1.68553 0.33274,-41.56447 0.64764,-58.72352 0.14769,-8.03758 0.20095,-8.80107 0.67782,-9.58829 0.63598,-1.04976 1.85544,-1.94626 2.95279,-2.17068 0.72916,-0.14908 0.84781,-0.30238 1.02358,-1.33369 0.40047,-2.34545 2.80348,-4.21724 5.43356,-4.23158 l 1.38857,-0.005 v -2.42314 z m -56.59126,0.72173 -1.93192,0.10702 c -1.06224,0.058 -1.95496,0.12491 -1.98683,0.15093 -0.0302,0.026 -0.0693,2.18628 -0.0904,4.79964 l -0.0357,4.75299 4.32214,0.13171 c 4.93675,0.15107 5.54634,0.3464 6.5285,2.09384 0.4997,0.88709 0.58609,1.34182 0.46925,2.47255 -0.0785,0.76229 -0.20785,10.13833 -0.28538,20.8341 -0.0775,10.69578 -0.2177,24.89233 -0.31011,31.55028 h 0.009 l -0.1674,12.10748 0.89462,-0.1674 c 1.32064,-0.24564 2.44403,-0.81922 2.83752,-1.44894 0.26606,-0.42566 0.37412,-3.06986 0.46651,-11.31167 0.0664,-5.91554 0.23808,-21.15073 0.38146,-33.85815 0.23949,-21.2372 0.22476,-23.1789 -0.17563,-24.02289 -0.76672,-1.61579 -1.4996,-1.82216 -6.51477,-1.82216 -2.7682,0 -4.43776,-0.0981 -4.44839,-0.26345 -0.0112,-0.14552 -0.005,-1.58014 0.0113,-3.18604 z m 55.64177,5.70797 c -2.39584,0 -4.34137,1.31949 -4.34137,2.94181 v 0.7821 l 2.57957,-0.0769 2.57957,-0.0741 0.0796,-1.78649 0.0768,-1.78648 z m -121.05569,3.77056 c 5.21512,-0.026 10.38224,2.50716 14.45104,7.2612 2.18742,2.55575 4.57356,6.45261 5.55705,9.07787 1.79559,4.79309 2.1163,5.94256 2.76343,9.85998 0.57245,3.46719 0.77903,9.77276 0.42535,13.05425 -0.46598,4.32322 -1.7903,9.98526 -2.51644,10.76281 -0.42357,0.45359 -0.51799,0.43985 -2.22008,-0.32382 l -1.7755,-0.79581 -0.25796,0.67232 c -0.14074,0.36946 -0.25522,0.81876 -0.25522,1.00164 0,0.698 -0.9008,2.95503 -1.29802,3.24916 -0.31993,0.23699 -0.57035,0.22386 -1.08121,-0.0549 -1.17838,-0.643 -3.53439,-1.63188 -5.02741,-2.1103 -0.80033,-0.25646 -1.87953,-0.61657 -2.3957,-0.80132 -3.30072,-1.18114 -12.45274,-2.36782 -16.92085,-2.19262 l -2.24752,0.0878 -0.0824,0.99614 c -0.0908,1.09749 0.79732,4.95931 1.53127,6.65473 0.25735,0.59462 1.02041,1.82648 1.69318,2.73599 1.46939,1.98625 2.03596,2.10422 3.23819,0.67233 0.78577,-0.93595 0.91128,-0.98776 2.71128,-1.08945 2.08523,-0.11789 2.35837,-0.0482 10.34296,2.63718 2.54064,0.85451 4.72946,1.66392 4.86276,1.79747 0.77567,0.77571 -1.24124,2.63039 -4.75299,4.3688 -0.74675,0.36965 -1.41568,0.89486 -1.48738,1.16904 -0.13291,0.50851 -2.59966,2.29045 -4.03399,2.91435 -1.50076,0.65278 -2.91307,1.06008 -4.62949,1.33644 -0.94589,0.15225 -2.13617,0.26858 -2.64543,0.25795 -1.28978,-0.0272 -4.44537,-0.72712 -5.32652,-1.18276 -0.40334,-0.20857 -0.90786,-0.38144 -1.1224,-0.38144 -0.21432,0 -0.745,-0.29755 -1.17727,-0.66135 -0.43237,-0.36381 -0.87011,-0.66137 -0.9742,-0.66137 -0.10377,0 -0.93302,-0.59167 -1.84136,-1.31448 -1.62423,-1.29243 -3.39421,-3.21181 -4.64321,-5.03564 -0.34869,-0.50933 -0.7083,-0.98377 -0.79857,-1.05652 -0.0903,-0.0727 -0.2454,-0.31137 -0.34578,-0.52963 -0.10008,-0.21829 -0.41514,-0.75442 -0.69976,-1.191 -0.63503,-0.97342 -1.11959,-2.00131 -2.28319,-4.84629 -2.9691,-7.25927 -3.86298,-16.74391 -2.3765,-25.18368 1.22839,-6.97436 2.96549,-11.53888 6.24858,-16.40494 1.11444,-1.65176 3.24144,-4.10939 4.2261,-4.8847 0.3638,-0.28645 2.03312,-1.84095 3.70743,-3.45497 3.31464,-3.19527 5.2161,-4.46608 8.26559,-5.51863 1.71014,-0.59026 3.45368,-0.88319 5.19207,-0.89187 z m -0.57903,1.8935 c -2.68134,0.048 -5.35732,0.83461 -7.91981,2.36827 -0.98227,0.58789 -1.7865,1.16525 -1.7865,1.28154 0,0.28183 0.0211,0.27894 1.35566,-0.22502 1.62348,-0.61304 6.22673,-0.62578 8.1366,-0.0219 3.23094,1.02146 5.3171,2.32802 8.12014,5.08779 1.47805,1.45519 2.88626,3.03416 3.1284,3.50709 0.24196,0.47294 0.55525,0.85894 0.69704,0.85894 0.14179,0 0.25796,0.18866 0.25796,0.41713 0,0.22844 0.33938,0.91197 0.75466,1.52029 0.41494,0.6083 1.08324,1.88066 1.48735,2.82655 0.40397,0.94588 0.89802,2.09356 1.0977,2.55211 0.19966,0.45856 0.36498,1.03106 0.36498,1.27332 0,0.24224 0.13516,0.69557 0.30186,1.00714 0.8006,1.49589 1.95978,7.84697 2.2338,12.2392 0.12505,2.00376 -0.19722,7.27426 -0.57903,9.4511 -0.13277,0.75586 -0.0867,0.99341 0.19483,0.99341 0.20317,0 0.78539,0.23049 1.29253,0.51317 1.24146,0.69221 1.25869,0.68719 1.55871,-0.4473 2.2121,-8.36883 2.03476,-18.10565 -0.48023,-26.24572 -0.6133,-1.9849 -2.27672,-5.77672 -3.11194,-7.09655 -0.485,-0.76681 -0.8809,-1.49012 -0.8809,-1.60536 0,-0.11521 -0.21055,-0.43963 -0.46651,-0.72174 -0.25581,-0.28209 -0.68345,-0.85066 -0.9495,-1.26508 -0.74069,-1.15317 -3.33956,-3.82457 -4.67066,-4.79964 -3.23439,-2.3693 -6.68972,-3.53037 -10.13714,-3.46868 z m -41.97282,1.49012 c -0.0753,-0.005 -0.31824,0.15094 -0.72995,0.472 -1.17753,0.91829 -4.91578,5.12984 -6.36112,7.16791 -6.35136,8.95611 -9.11051,16.93792 -9.47851,27.40649 -0.1625,4.62511 0.21288,8.37557 1.31448,13.09815 1.83159,7.85226 6.51671,16.05855 12.96368,22.70841 1.89527,1.95497 5.5349,5.07132 5.92202,5.07132 0.11479,0 0.38024,0.23857 0.59002,0.52963 0.20986,0.29106 0.47246,0.52963 0.58451,0.52963 0.11212,0 0.72499,0.38601 1.36113,0.85894 1.29568,0.96331 1.92059,1.32874 5.32927,3.1092 3.50608,1.83134 8.85417,3.82912 12.30507,4.59657 3.77463,0.83944 6.40044,1.28496 8.72936,1.48188 8.9934,0.76042 18.45081,-0.72627 27.02506,-4.25081 1.72491,-0.70902 3.60335,-1.58544 4.17395,-1.94564 1.53174,-0.96692 2.2556,-1.0786 3.12017,-0.48298 0.61613,0.42444 2.23426,1.18596 2.72227,1.28155 0.15979,0.0314 0.87491,0.29682 2.11854,0.78758 0.89188,0.35197 2.63026,0.73347 5.42258,1.18826 1.93632,0.31543 8.76537,0.29867 11.16073,-0.0274 2.2087,-0.30069 7.67151,-1.74268 8.22168,-2.17067 0.18214,-0.14153 0.32931,-0.72668 0.32931,-1.30077 0,-0.86629 -0.0792,-1.02197 -0.46378,-0.91657 -0.66943,0.18364 -2.93724,0.64266 -4.16297,0.84249 -1.95619,0.31892 -9.07669,0.14859 -11.51474,-0.27443 -3.64935,-0.63318 -8.34821,-2.22014 -9.54713,-3.22447 -0.35937,-0.30098 -0.89404,-0.1256 -3.70197,1.20747 -8.06423,3.82838 -15.86984,5.59126 -24.73363,5.58723 -5.34627,-0.003 -7.89313,-0.24045 -12.5987,-1.17727 -3.71217,-0.73904 -5.339,-1.20203 -8.15307,-2.3271 -1.09144,-0.43634 -2.34338,-0.92811 -2.77989,-1.0922 -1.46408,-0.55025 -6.59339,-3.37551 -8.59763,-4.73377 -7.40461,-5.01811 -14.09201,-12.45854 -17.71942,-19.71721 -3.56912,-7.14193 -5.08886,-13.58984 -5.12071,-21.75067 -0.0254,-6.31774 0.84018,-11.26499 2.97198,-16.99219 1.7323,-4.654 5.49632,-11.09957 8.2848,-14.19036 0.80004,-0.88694 1.13812,-1.34182 1.01261,-1.35015 z m 27.72484,45.46071 -1.76454,0.18112 c -0.97052,0.0993 -1.84581,0.25568 -1.94564,0.34852 -0.0999,0.0929 -0.0547,0.70629 0.0988,1.36113 0.85849,3.66095 2.37803,6.84326 4.40447,9.22057 1.52101,1.78435 4.22545,4.07173 4.56638,3.86112 0.58849,-0.36371 6.51558,1.0389 9.23704,2.18714 0.21831,0.0921 0.99025,0.37219 1.71788,0.62294 0.72758,0.25076 1.3313,0.46811 1.34193,0.48298 0.0777,0.11086 2.95743,-0.96737 4.40445,-1.64927 1.91117,-0.90064 2.22247,-1.38591 1.06751,-1.663 -0.4002,-0.096 -2.83536,-0.87006 -5.41159,-1.72062 -2.57628,-0.85058 -5.34526,-1.62299 -6.15255,-1.71789 l -1.46814,-0.17289 -1.1416,1.22667 c -0.90605,0.97297 -1.31959,1.22667 -2.00054,1.22667 -1.27412,0 -1.75296,-0.35888 -3.34246,-2.50822 -1.9429,-2.62721 -2.9349,-5.44153 -3.43302,-9.74746 z m -3.85289,7.54934 c -0.17784,0.1779 0.55064,2.44751 1.4517,4.52797 0.74186,1.71287 2.75815,4.76016 3.3013,4.98898 0.6144,0.25881 1.86531,0.0419 2.12127,-0.36773 0.19782,-0.31621 -0.28941,-0.95606 -2.22282,-2.91161 -1.76512,-1.78536 -2.76964,-3.06204 -3.49339,-4.44288 -0.5586,-1.06572 -1.08,-1.87253 -1.15806,-1.79473 z m 69.8431,9.73923 c -1.51783,0.0791 -1.51988,0.0821 -1.60537,0.97695 -0.0837,0.87739 -0.0682,0.89341 0.74917,0.72996 0.92251,-0.1845 2.37923,-1.11858 2.37923,-1.52578 0,-0.14907 -0.65011,-0.22678 -1.52303,-0.18113 z m 9.45932,8.94341 v 5.24694 c 0,2.88618 0.0704,5.31761 0.15641,5.40337 0.0858,0.0855 0.53079,0.11086 0.99068,0.0549 0.45992,-0.0559 13.86219,-0.16203 29.78025,-0.23601 15.91808,-0.0739 28.96902,-0.16766 29.00088,-0.20856 0.0325,-0.0407 0.13376,-0.82282 0.22503,-1.73707 l 0.16466,-1.66302 -16.59979,0.1427 c -9.12971,0.0786 -21.8083,0.20389 -28.17488,0.27718 l -11.57511,0.13165 v -3.7047 -3.70743 h -1.98406 z"
       id="path4500"
       inkscape:connector-curvature="0" />
    <path
       style="fill:none;stroke:#000000;stroke-width:12.22384548;stroke-linecap:round;stroke-linejoin:miter;stroke-miterlimit:4;stroke-dasharray:none;stroke-opacity:1"
       d="M 374.34532,60.943296 H 641.05194"
       id="path4502"
       inkscape:connector-curvature="0" />
    <path
       style="fill:none;stroke:#000000;stroke-width:12.22384548;stroke-linecap:round;stroke-linejoin:miter;stroke-miterlimit:4;stroke-dasharray:none;stroke-opacity:1"
       d="m 127.38638,-200.24533 h 760.6245"
       id="path4502-6"
       inkscape:connector-curvature="0" />
    <path
       inkscape:connector-curvature="0"
       id="path4593"
       d="m 127.38638,-163.71412 h 760.6245"
       style="fill:none;stroke:#000000;stroke-width:12.22384548;stroke-linecap:round;stroke-linejoin:miter;stroke-miterlimit:4;stroke-dasharray:none;stroke-opacity:1" />
    <path
       style="fill:none;stroke:#000000;stroke-width:12.22384548;stroke-linecap:round;stroke-linejoin:miter;stroke-miterlimit:4;stroke-dasharray:none;stroke-opacity:1"
       d="m 127.38638,-127.18286 h 760.6245"
       id="path4595"
       inkscape:connector-curvature="0" />
    <path
       style="fill:none;stroke:#000000;stroke-width:12.22384548;stroke-linecap:round;stroke-linejoin:miter;stroke-miterlimit:4;stroke-dasharray:none;stroke-opacity:1"
       d="m 449.7237,-50.153959 h 99.93839"
       id="path4595-3"
       inkscape:connector-curvature="0" />
    <path
       style="fill:none;stroke:#000000;stroke-width:12.22384548;stroke-linecap:round;stroke-linejoin:miter;stroke-miterlimit:4;stroke-dasharray:none;stroke-opacity:1"
       d="M 428.6337,81.486471 H 586.76356"
       id="path4595-3-9"
       inkscape:connector-curvature="0" />
    <path
       style="fill:none;stroke:#000000;stroke-width:12.22384548;stroke-linecap:round;stroke-linejoin:miter;stroke-miterlimit:4;stroke-dasharray:none;stroke-opacity:1"
       d="M 453.82636,100.64709 H 561.5709"
       id="path4595-3-9-3"
       inkscape:connector-curvature="0" />
    <path
       style="fill:none;stroke:#000000;stroke-width:12.22384548;stroke-linecap:round;stroke-linejoin:miter;stroke-miterlimit:4;stroke-dasharray:none;stroke-opacity:1"
       d="M 415.32774,-402.52657 H 600.06953"
       id="path4502-6-4"
       inkscape:connector-curvature="0" />
    <text
       xml:space="preserve"
       style="font-style:normal;font-variant:normal;font-weight:normal;font-stretch:normal;font-size:79.6543808px;line-height:10.37166405px;font-family:consolas;-inkscape-font-specification:consolas;text-align:center;letter-spacing:0px;word-spacing:0px;text-anchor:middle;fill:#000000;fill-opacity:1;stroke:none;stroke-width:0.41486654"
       x="513.8244"
       y="24.013414"
       id="text4508"><tspan
         sodipodi:role="line"
         id="tspan4506"
         x="513.8244"
         y="24.013414"
         style="font-style:normal;font-variant:normal;font-weight:normal;font-stretch:normal;font-size:79.6543808px;font-family:consolas;-inkscape-font-specification:consolas;stroke-width:0.41486654">Carregando...</tspan></text>
  </g>
</svg>
