<?xml version="1.0" encoding="UTF-8" standalone="no"?>
<svg
   xmlns:dc="http://purl.org/dc/elements/1.1/"
   xmlns:cc="http://creativecommons.org/ns#"
   xmlns:rdf="http://www.w3.org/1999/02/22-rdf-syntax-ns#"
   xmlns:svg="http://www.w3.org/2000/svg"
   xmlns="http://www.w3.org/2000/svg"
   xmlns:sodipodi="http://sodipodi.sourceforge.net/DTD/sodipodi-0.dtd"
   xmlns:inkscape="http://www.inkscape.org/namespaces/inkscape"
   height="60"
   id="Layer_1"
   version="1.1"
   viewBox="0 0 60 60"
   width="60"
   xml:space="preserve"
   sodipodi:docname="github.svg"
   inkscape:version="0.92.0 r15299"><metadata
     id="metadata9"><rdf:RDF><cc:Work
         rdf:about=""><dc:format>image/svg+xml</dc:format><dc:type
           rdf:resource="http://purl.org/dc/dcmitype/StillImage" /><dc:title /></cc:Work></rdf:RDF></metadata><defs
     id="defs7" /><sodipodi:namedview
     pagecolor="#ffffff"
     bordercolor="#666666"
     borderopacity="1"
     objecttolerance="10"
     gridtolerance="10"
     guidetolerance="10"
     inkscape:pageopacity="0"
     inkscape:pageshadow="2"
     inkscape:window-width="1920"
     inkscape:window-height="1017"
     id="namedview5"
     showgrid="false"
     fit-margin-top="0"
     fit-margin-left="0"
     fit-margin-right="0"
     fit-margin-bottom="0"
     inkscape:zoom="7.0447762"
     inkscape:cx="15.92475"
     inkscape:cy="34.08932"
     inkscape:window-x="2812"
     inkscape:window-y="226"
     inkscape:window-maximized="1"
     inkscape:current-layer="Layer_1" /><circle
     style="opacity:1;fill:#000000;fill-opacity:1;stroke-width:1.09259272;stroke-miterlimit:4;stroke-dasharray:none"
     id="path4486"
     cx="30"
     cy="29.999998"
     r="30" /><path
     style="opacity:1;fill:#ffffff;fill-opacity:1;stroke-width:1.13940156;stroke-miterlimit:4;stroke-dasharray:none"
     d="M 40.257812 15 C 38.906785 15.019715 36.529594 16.242469 35.152344 17.136719 C 32.588344 16.399719 27.167766 16.470172 25.134766 17.326172 C 21.383766 14.687172 19.398438 15.091797 19.398438 15.091797 C 19.398438 15.091797 18.114594 17.35025 19.058594 20.65625 C 17.824594 22.20225 16.904297 23.296312 16.904297 26.195312 C 16.905297 27.829313 17.101969 29.292359 17.542969 30.568359 C 17.488969 30.568359 18.134344 31.935547 18.152344 31.935547 C 19.562344 34.451547 22.280234 36.015219 26.865234 36.449219 C 26.211234 36.937219 25.425406 37.863594 25.316406 38.933594 C 24.493406 39.456594 22.838734 39.629469 21.552734 39.230469 C 19.749734 38.671469 19.060328 35.164062 16.361328 35.664062 C 15.777328 35.771062 15.893437 36.149656 16.398438 36.472656 C 17.221438 36.995656 17.994797 37.651922 18.591797 39.044922 C 19.050797 40.114922 20.014453 42.025391 23.064453 42.025391 C 24.274453 42.025391 25.123047 41.882812 25.123047 41.882812 C 25.123047 41.882812 25.146484 44.613781 25.146484 45.675781 C 25.146484 46.900781 23.464844 47.244984 23.464844 47.833984 C 23.464844 48.066984 24.02175 48.089844 24.46875 48.089844 C 25.35275 48.089844 27.191406 47.364797 27.191406 46.091797 C 27.191406 45.080797 27.207031 41.681938 27.207031 41.085938 C 27.207031 39.785938 27.917969 39.373047 27.917969 39.373047 C 27.917969 39.373047 28.005047 46.312141 27.748047 47.244141 C 27.446047 48.338141 26.900391 48.183875 26.900391 48.671875 C 26.900391 49.397875 29.115609 48.850859 29.849609 47.255859 C 30.416609 46.016859 30.167969 39.205078 30.167969 39.205078 L 30.773438 39.193359 C 30.773438 39.193359 30.806156 42.311328 30.785156 43.736328 C 30.764156 45.212328 30.662688 47.077031 31.554688 47.957031 C 32.140687 48.536031 34.039062 49.551047 34.039062 48.623047 C 34.039062 48.084047 32.998047 47.642594 32.998047 46.183594 L 32.998047 39.46875 C 33.829047 39.46875 33.705078 41.675781 33.705078 41.675781 L 33.765625 45.779297 C 33.765625 45.779297 33.581156 47.273438 35.410156 47.898438 C 36.055156 48.121437 37.436953 48.181594 37.501953 47.808594 C 37.566953 47.435594 35.838266 46.880609 35.822266 45.724609 C 35.812266 45.017609 35.855469 44.605109 35.855469 41.537109 C 35.855469 38.469109 35.435609 37.335641 33.974609 36.431641 C 38.482609 35.976641 41.273812 34.880313 42.632812 31.945312 C 42.738813 31.948313 43.187906 30.574219 43.128906 30.574219 C 43.433906 29.466219 43.598859 28.155516 43.630859 26.603516 C 43.622859 22.393516 41.572688 20.904078 41.179688 20.205078 C 41.759687 17.018078 41.081578 15.568313 40.767578 15.070312 C 40.622328 15.019562 40.450816 14.997184 40.257812 15 z "
     id="path4482" /></svg>