<?xml version="1.0" encoding="UTF-8" standalone="no"?>
<svg
   xmlns:dc="http://purl.org/dc/elements/1.1/"
   xmlns:cc="http://creativecommons.org/ns#"
   xmlns:rdf="http://www.w3.org/1999/02/22-rdf-syntax-ns#"
   xmlns:svg="http://www.w3.org/2000/svg"
   xmlns="http://www.w3.org/2000/svg"
   xmlns:sodipodi="http://sodipodi.sourceforge.net/DTD/sodipodi-0.dtd"
   xmlns:inkscape="http://www.inkscape.org/namespaces/inkscape"
   height="60"
   id="Layer_1"
   version="1.1"
   viewBox="0 0 60 60"
   width="60"
   xml:space="preserve"
   sodipodi:docname="linkedin.svg"
   inkscape:version="0.92.0 r15299"><metadata
     id="metadata9"><rdf:RDF><cc:Work
         rdf:about=""><dc:format>image/svg+xml</dc:format><dc:type
           rdf:resource="http://purl.org/dc/dcmitype/StillImage" /><dc:title /></cc:Work></rdf:RDF></metadata><defs
     id="defs7"><pattern
       y="0"
       x="0"
       height="6"
       width="6"
       patternUnits="userSpaceOnUse"
       id="EMFhbasepattern" /></defs><sodipodi:namedview
     pagecolor="#ffffff"
     bordercolor="#666666"
     borderopacity="1"
     objecttolerance="10"
     gridtolerance="10"
     guidetolerance="10"
     inkscape:pageopacity="0"
     inkscape:pageshadow="2"
     inkscape:window-width="1920"
     inkscape:window-height="1027"
     id="namedview5"
     showgrid="false"
     fit-margin-top="0"
     fit-margin-left="0"
     fit-margin-right="0"
     fit-margin-bottom="0"
     inkscape:zoom="1.2453523"
     inkscape:cx="-225.11096"
     inkscape:cy="33.803529"
     inkscape:window-x="3452"
     inkscape:window-y="224"
     inkscape:window-maximized="1"
     inkscape:current-layer="Layer_1"
     showguides="false" /><path
     style="opacity:1;fill:#6c757d;fill-opacity:1;stroke-width:1.02530074;stroke-miterlimit:4;stroke-dasharray:none"
     d="M 30 0 A 30 30 0 0 0 0 30 A 30 30 0 0 0 30 60 A 30 30 0 0 0 60 30 A 30 30 0 0 0 30 0 z M 19.003906 13.863281 C 21.325906 13.863281 22.756781 15.387625 22.800781 17.390625 C 22.800781 19.351625 21.325984 20.921875 18.958984 20.921875 L 18.916016 20.921875 C 16.637016 20.921875 15.162109 19.351625 15.162109 17.390625 C 15.162109 15.386625 16.681906 13.863281 19.003906 13.863281 z M 39.021484 23.230469 C 43.487484 23.230469 46.837891 26.150781 46.837891 32.425781 L 46.837891 44.136719 L 46.837891 44.138672 L 40.048828 44.138672 L 40.048828 33.208984 C 40.048828 30.463984 39.065422 28.591797 36.607422 28.591797 C 34.732422 28.591797 33.616953 29.854219 33.126953 31.074219 C 32.946953 31.510219 32.902344 32.119516 32.902344 32.728516 L 32.902344 44.136719 L 26.111328 44.136719 C 26.111328 44.136719 26.201328 25.627938 26.111328 23.710938 L 32.902344 23.710938 L 32.902344 26.603516 C 33.802344 25.212516 35.417484 23.230469 39.021484 23.230469 z M 15.564453 23.710938 L 22.353516 23.710938 L 22.353516 44.136719 L 15.564453 44.136719 L 15.564453 23.710938 z "
     id="path4487" /></svg>