<?xml version="1.0" encoding="UTF-8" standalone="no"?>
<svg
   xmlns:dc="http://purl.org/dc/elements/1.1/"
   xmlns:cc="http://creativecommons.org/ns#"
   xmlns:rdf="http://www.w3.org/1999/02/22-rdf-syntax-ns#"
   xmlns:svg="http://www.w3.org/2000/svg"
   xmlns="http://www.w3.org/2000/svg"
   xmlns:sodipodi="http://sodipodi.sourceforge.net/DTD/sodipodi-0.dtd"
   xmlns:inkscape="http://www.inkscape.org/namespaces/inkscape"
   height="60"
   id="Layer_1"
   version="1.1"
   viewBox="0 0 60 60"
   width="60"
   xml:space="preserve"
   sodipodi:docname="linkedin.svg"
   inkscape:version="0.92.0 r15299"><metadata
     id="metadata9"><rdf:RDF><cc:Work
         rdf:about=""><dc:format>image/svg+xml</dc:format><dc:type
           rdf:resource="http://purl.org/dc/dcmitype/StillImage" /><dc:title /></cc:Work></rdf:RDF></metadata><defs
     id="defs7" /><sodipodi:namedview
     pagecolor="#ffffff"
     bordercolor="#666666"
     borderopacity="1"
     objecttolerance="10"
     gridtolerance="10"
     guidetolerance="10"
     inkscape:pageopacity="0"
     inkscape:pageshadow="2"
     inkscape:window-width="1920"
     inkscape:window-height="1017"
     id="namedview5"
     showgrid="false"
     fit-margin-top="0"
     fit-margin-left="0"
     fit-margin-right="0"
     fit-margin-bottom="0"
     inkscape:zoom="7.0447762"
     inkscape:cx="13.189998"
     inkscape:cy="34.912533"
     inkscape:window-x="2812"
     inkscape:window-y="226"
     inkscape:window-maximized="1"
     inkscape:current-layer="Layer_1" /><circle
     style="opacity:1;fill:#007ab9;fill-opacity:1;stroke-width:1.02530074;stroke-miterlimit:4;stroke-dasharray:none"
     id="path4487"
     cx="30"
     cy="30"
     r="30" /><path
     style="opacity:1;fill:#ffffff;fill-opacity:1;stroke-width:1.00535429;stroke-miterlimit:4;stroke-dasharray:none"
     d="M 19.003906 13.863281 C 16.681906 13.863281 15.162109 15.386625 15.162109 17.390625 C 15.162109 19.351625 16.637016 20.921875 18.916016 20.921875 L 18.958984 20.921875 C 21.325984 20.921875 22.800781 19.351625 22.800781 17.390625 C 22.756781 15.387625 21.325906 13.863281 19.003906 13.863281 z M 39.021484 23.230469 C 35.417484 23.230469 33.802344 25.212516 32.902344 26.603516 L 32.902344 23.710938 L 26.111328 23.710938 C 26.201328 25.627938 26.111328 44.136719 26.111328 44.136719 L 32.902344 44.136719 L 32.902344 32.728516 C 32.902344 32.119516 32.946953 31.510219 33.126953 31.074219 C 33.616953 29.854219 34.732422 28.591797 36.607422 28.591797 C 39.065422 28.591797 40.048828 30.463984 40.048828 33.208984 L 40.048828 44.138672 L 46.837891 44.138672 L 46.837891 44.136719 L 46.837891 32.425781 C 46.837891 26.150781 43.487484 23.230469 39.021484 23.230469 z M 15.564453 23.710938 L 15.564453 44.136719 L 22.353516 44.136719 L 22.353516 23.710938 L 15.564453 23.710938 z "
     id="path4484" /></svg>