<?xml version="1.0" encoding="UTF-8" standalone="no"?>
<!-- Created with Inkscape (http://www.inkscape.org/) -->

<svg
   xmlns:dc="http://purl.org/dc/elements/1.1/"
   xmlns:cc="http://creativecommons.org/ns#"
   xmlns:rdf="http://www.w3.org/1999/02/22-rdf-syntax-ns#"
   xmlns:svg="http://www.w3.org/2000/svg"
   xmlns="http://www.w3.org/2000/svg"
   xmlns:sodipodi="http://sodipodi.sourceforge.net/DTD/sodipodi-0.dtd"
   xmlns:inkscape="http://www.inkscape.org/namespaces/inkscape"
   width="4.5mm"
   height="4.5mm"
   viewBox="0 0 4.5 4.5"
   version="1.1"
   id="svg4579"
   inkscape:version="0.92.3 (2405546, 2018-03-11)"
   sodipodi:docname="maps.svg">
  <defs
     id="defs4573" />
  <sodipodi:namedview
     id="base"
     pagecolor="#ffffff"
     bordercolor="#666666"
     borderopacity="1.0"
     inkscape:pageopacity="0.0"
     inkscape:pageshadow="2"
     inkscape:zoom="15.839192"
     inkscape:cx="-0.55107762"
     inkscape:cy="-2.0923759"
     inkscape:document-units="mm"
     inkscape:current-layer="g4828"
     showgrid="false"
     fit-margin-top="0"
     fit-margin-left="0"
     fit-margin-right="0"
     fit-margin-bottom="0"
     inkscape:window-width="958"
     inkscape:window-height="991"
     inkscape:window-x="952"
     inkscape:window-y="0"
     inkscape:window-maximized="0" />
  <metadata
     id="metadata4576">
    <rdf:RDF>
      <cc:Work
         rdf:about="">
        <dc:format>image/svg+xml</dc:format>
        <dc:type
           rdf:resource="http://purl.org/dc/dcmitype/StillImage" />
        <dc:title />
      </cc:Work>
    </rdf:RDF>
  </metadata>
  <g
     inkscape:label="Layer 1"
     inkscape:groupmode="layer"
     id="layer1"
     transform="translate(62.593997,-109.62474)">
    <g
       transform="translate(-65.093997,-181.81699)"
       id="g4828">
      <path
         style="fill:#6c757d;fill-opacity:1;stroke:#000000;stroke-width:0;stroke-linecap:round;stroke-linejoin:round;stroke-miterlimit:4;stroke-dasharray:none;stroke-opacity:1;paint-order:stroke markers fill"
         d="M 8.5039062 0 A 8.5039352 8.5039352 0 0 0 0 8.5039062 A 8.5039352 8.5039352 0 0 0 8.5039062 17.007812 A 8.5039352 8.5039352 0 0 0 17.007812 8.5039062 A 8.5039352 8.5039352 0 0 0 8.5039062 0 z M 8.5039062 1.6347656 C 10.874802 1.6347656 12.796875 3.7494345 12.796875 6.3574219 C 12.796875 6.5021778 12.790824 6.6457928 12.779297 6.7871094 L 12.796875 6.7871094 C 12.796875 9.3677708 8.5039062 15.373047 8.5039062 15.373047 C 8.5039062 15.373047 4.2109375 9.3820196 4.2109375 6.7871094 L 4.2285156 6.7871094 C 4.2169125 6.645755 4.2109375 6.50214 4.2109375 6.3574219 C 4.2109375 3.7494345 6.1330101 1.6347656 8.5039062 1.6347656 z M 8.5039062 4.2109375 C 7.5555461 4.2109375 6.7871094 4.9793753 6.7871094 5.9277344 C 6.7871094 6.8760934 7.5555461 7.6445312 8.5039062 7.6445312 C 9.4522664 7.6445312 10.220703 6.8760934 10.220703 5.9277344 C 10.220703 4.9793753 9.4522664 4.2109375 8.5039062 4.2109375 z "
         transform="matrix(0.26458333,0,0,0.26458333,2.5,291.44173)"
         id="path820" />
    </g>
  </g>
</svg>
