<?xml version="1.0" encoding="UTF-8" standalone="no"?>
<!-- Created with Inkscape (http://www.inkscape.org/) -->

<svg
   xmlns:dc="http://purl.org/dc/elements/1.1/"
   xmlns:cc="http://creativecommons.org/ns#"
   xmlns:rdf="http://www.w3.org/1999/02/22-rdf-syntax-ns#"
   xmlns:svg="http://www.w3.org/2000/svg"
   xmlns="http://www.w3.org/2000/svg"
   xmlns:sodipodi="http://sodipodi.sourceforge.net/DTD/sodipodi-0.dtd"
   xmlns:inkscape="http://www.inkscape.org/namespaces/inkscape"
   width="500.00003"
   height="500.00003"
   viewBox="0 0 132.29167 132.29167"
   version="1.1"
   id="svg4517"
   inkscape:version="0.92.0 r15299"
   sodipodi:docname="outlook.svg">
  <defs
     id="defs4511" />
  <sodipodi:namedview
     id="base"
     pagecolor="#ffffff"
     bordercolor="#666666"
     borderopacity="1.0"
     inkscape:pageopacity="0.0"
     inkscape:pageshadow="2"
     inkscape:zoom="0.35"
     inkscape:cx="-1334.2857"
     inkscape:cy="-38.571414"
     inkscape:document-units="mm"
     inkscape:current-layer="layer1"
     showgrid="false"
     fit-margin-top="0"
     fit-margin-left="0"
     fit-margin-right="0"
     fit-margin-bottom="0"
     units="px"
     inkscape:window-width="1920"
     inkscape:window-height="1017"
     inkscape:window-x="892"
     inkscape:window-y="226"
     inkscape:window-maximized="1" />
  <metadata
     id="metadata4514">
    <rdf:RDF>
      <cc:Work
         rdf:about="">
        <dc:format>image/svg+xml</dc:format>
        <dc:type
           rdf:resource="http://purl.org/dc/dcmitype/StillImage" />
        <dc:title></dc:title>
      </cc:Work>
    </rdf:RDF>
  </metadata>
  <g
     inkscape:label="Layer 1"
     inkscape:groupmode="layer"
     id="layer1"
     transform="translate(-332.99702,-6.3363079)">
    <path
       inkscape:connector-curvature="0"
       style="fill:#0072c6;fill-opacity:1;stroke:none;stroke-width:0.26458332"
       d="m 399.14286,6.3363079 c 36.64478,0 66.14583,29.5010421 66.14583,66.1458331 0,36.644789 -29.50105,66.145839 -66.14583,66.145839 -36.6448,0 -66.14584,-29.50105 -66.14584,-66.145839 0,-36.644791 29.50104,-66.1458331 66.14584,-66.1458331 z"
       id="rect2990-1" />
    <path
       inkscape:connector-curvature="0"
       style="fill:#ffffff;fill-opacity:1;stroke:none;stroke-width:0.26458332"
       id="rect2989-1"
       d="m 406.56511,30.148807 -49.29605,9.538926 V 104.4828 l 49.29605,10.33268 z m 3.11234,17.949893 v 16.557344 l 5.78602,3.648467 c 0.15264,0.04455 0.48098,0.04773 0.63361,0 l 24.9126,-16.794081 c 0,-1.987484 -1.85027,-3.41173 -2.89649,-3.41173 z m -27.20334,9.573738 c 3.25311,0 5.88219,1.32482 7.88876,3.989637 2.00974,2.664822 3.01485,6.181812 3.01485,10.541558 0.003,4.480584 -1.03641,8.092853 -3.11929,10.833992 -2.08289,2.741139 -4.80166,4.114966 -8.15335,4.114966 -3.26583,0 -5.92183,-1.327398 -7.97927,-3.982675 -2.05427,-2.658462 -3.09145,-6.120849 -3.09145,-10.388377 0,-4.506027 1.05094,-8.148993 3.14018,-10.93147 2.08925,-2.78248 4.85565,-4.177631 8.29957,-4.177631 z m 58.54254,0.529167 c 0,0 -25.30486,16.818832 -24.41129,16.271875 0,0 -0.89909,0.546957 -1.64321,0 l -5.2847,-3.627578 v 22.503509 h 26.82735 c 2.38499,0 4.51185,-1.393259 4.51185,-4.706797 z M 382.32789,63.2078 c -1.79987,0 -3.2301,0.845862 -4.28904,2.53443 -1.05893,1.688568 -1.59446,3.92262 -1.59446,6.705097 0,2.823819 0.53553,5.057267 1.59446,6.698137 1.05894,1.644049 2.44652,2.457838 4.16371,2.457838 1.77125,0 3.17577,-0.798827 4.21244,-2.395175 1.03668,-1.596347 1.55965,-3.81604 1.55965,-6.649397 0,-2.954194 -0.50285,-5.249045 -1.51091,-6.893091 -1.00805,-1.64087 -2.38687,-2.457839 -4.13585,-2.457839 z" />
  </g>
</svg>
