<?xml version="1.0" encoding="UTF-8" standalone="no"?>
<!-- Created with Inkscape (http://www.inkscape.org/) -->

<svg
   xmlns:dc="http://purl.org/dc/elements/1.1/"
   xmlns:cc="http://creativecommons.org/ns#"
   xmlns:rdf="http://www.w3.org/1999/02/22-rdf-syntax-ns#"
   xmlns:svg="http://www.w3.org/2000/svg"
   xmlns="http://www.w3.org/2000/svg"
   xmlns:sodipodi="http://sodipodi.sourceforge.net/DTD/sodipodi-0.dtd"
   xmlns:inkscape="http://www.inkscape.org/namespaces/inkscape"
   width="500.00003"
   height="500.00003"
   viewBox="0 0 132.29167 132.29167"
   version="1.1"
   id="svg4517"
   inkscape:version="0.92.0 r15299"
   sodipodi:docname="outlook.svg">
  <defs
     id="defs4511">
    <pattern
       y="0"
       x="0"
       height="6"
       width="6"
       patternUnits="userSpaceOnUse"
       id="EMFhbasepattern" />
  </defs>
  <sodipodi:namedview
     id="base"
     pagecolor="#ffffff"
     bordercolor="#666666"
     borderopacity="1.0"
     inkscape:pageopacity="0.0"
     inkscape:pageshadow="2"
     inkscape:zoom="0.98994949"
     inkscape:cx="-626.67375"
     inkscape:cy="328.74839"
     inkscape:document-units="mm"
     inkscape:current-layer="layer1"
     showgrid="false"
     fit-margin-top="0"
     fit-margin-left="0"
     fit-margin-right="0"
     fit-margin-bottom="0"
     units="px"
     inkscape:window-width="1920"
     inkscape:window-height="1027"
     inkscape:window-x="3452"
     inkscape:window-y="224"
     inkscape:window-maximized="1" />
  <metadata
     id="metadata4514">
    <rdf:RDF>
      <cc:Work
         rdf:about="">
        <dc:format>image/svg+xml</dc:format>
        <dc:type
           rdf:resource="http://purl.org/dc/dcmitype/StillImage" />
        <dc:title />
      </cc:Work>
    </rdf:RDF>
  </metadata>
  <g
     inkscape:label="Layer 1"
     inkscape:groupmode="layer"
     id="layer1"
     transform="translate(-332.99702,-6.3363079)">
    <path
       style="fill:#6c757d;fill-opacity:1;stroke:none;stroke-width:0.99999994"
       d="M 250 0 C 111.49997 -1.1368684e-013 0 111.5 0 250 C 0 388.49999 111.49997 500 250 500 C 388.49996 500 500 388.49999 500 250 C 500 111.5 388.49996 0 250 0 z M 278.05273 90 L 278.05273 410 L 91.736328 370.94727 L 91.736328 126.05273 L 278.05273 90 z M 289.81641 157.8418 L 397.28906 157.8418 C 401.24328 157.8418 408.23633 163.22458 408.23633 170.73633 L 314.07812 234.21094 C 313.50126 234.39133 312.2605 234.37932 311.68359 234.21094 L 289.81641 220.42188 L 289.81641 157.8418 z M 187 194.02539 C 173.98361 194.02539 163.52724 199.29995 155.63086 209.81641 C 147.73452 220.33285 143.76367 234.10021 143.76367 251.13086 C 143.76367 267.2601 147.6831 280.3468 155.44727 290.39453 C 163.22342 300.43022 173.26217 305.44727 185.60547 305.44727 C 198.27327 305.44727 208.54953 300.25474 216.42188 289.89453 C 224.29418 279.53432 228.22228 265.88176 228.21094 248.94727 C 228.21094 232.46949 224.41227 219.17724 216.81641 209.10547 C 209.23252 199.03372 199.29522 194.02539 187 194.02539 z M 408.26367 196.02539 L 408.26367 311.07812 C 408.26367 323.60173 400.22507 328.86914 391.21094 328.86914 L 289.81641 328.86914 L 289.81641 243.81641 L 309.78906 257.52539 C 312.60148 259.59263 316 257.52539 316 257.52539 C 312.62273 259.59263 408.26367 196.02539 408.26367 196.02539 z M 186.44727 214.94727 C 193.05758 214.94727 198.26817 218.03461 202.07812 224.23633 C 205.88812 230.45005 207.78906 239.1236 207.78906 250.28906 C 207.78906 260.99781 205.81269 269.38844 201.89453 275.42188 C 197.97641 281.45532 192.6691 284.47461 185.97461 284.47461 C 179.48444 284.47461 174.23862 281.39732 170.23633 275.18359 C 166.23407 268.98188 164.21094 260.54184 164.21094 249.86914 C 164.21094 239.35269 166.23407 230.90738 170.23633 224.52539 C 174.23862 218.1434 179.64461 214.94727 186.44727 214.94727 z "
       id="rect2990-1"
       transform="matrix(0.26458333,0,0,0.26458333,332.99702,6.3363079)" />
  </g>
</svg>
