<?xml version="1.0" encoding="UTF-8" standalone="no"?>
<!-- Created with Inkscape (http://www.inkscape.org/) -->

<svg
   xmlns:dc="http://purl.org/dc/elements/1.1/"
   xmlns:cc="http://creativecommons.org/ns#"
   xmlns:rdf="http://www.w3.org/1999/02/22-rdf-syntax-ns#"
   xmlns:svg="http://www.w3.org/2000/svg"
   xmlns="http://www.w3.org/2000/svg"
   xmlns:sodipodi="http://sodipodi.sourceforge.net/DTD/sodipodi-0.dtd"
   xmlns:inkscape="http://www.inkscape.org/namespaces/inkscape"
   width="4.499999mm"
   height="4.5mm"
   viewBox="0 0 4.4999991 4.5"
   version="1.1"
   id="svg4579"
   inkscape:version="0.92.3 (2405546, 2018-03-11)"
   sodipodi:docname="whatsapp.svg">
  <defs
     id="defs4573" />
  <sodipodi:namedview
     id="base"
     pagecolor="#ffffff"
     bordercolor="#666666"
     borderopacity="1.0"
     inkscape:pageopacity="0.0"
     inkscape:pageshadow="2"
     inkscape:zoom="15.839192"
     inkscape:cx="-0.59203112"
     inkscape:cy="9.8458524"
     inkscape:document-units="mm"
     inkscape:current-layer="layer1"
     showgrid="false"
     fit-margin-top="0"
     fit-margin-left="0"
     fit-margin-right="0"
     fit-margin-bottom="0"
     inkscape:window-width="1920"
     inkscape:window-height="1001"
     inkscape:window-x="-9"
     inkscape:window-y="-9"
     inkscape:window-maximized="1" />
  <metadata
     id="metadata4576">
    <rdf:RDF>
      <cc:Work
         rdf:about="">
        <dc:format>image/svg+xml</dc:format>
        <dc:type
           rdf:resource="http://purl.org/dc/dcmitype/StillImage" />
        <dc:title />
      </cc:Work>
    </rdf:RDF>
  </metadata>
  <g
     inkscape:label="Layer 1"
     inkscape:groupmode="layer"
     id="layer1"
     transform="translate(73.348461,-117.82787)">
    <path
       style="opacity:1;fill:#6c757d;fill-opacity:1;stroke:none;stroke-width:0;stroke-linecap:round;stroke-miterlimit:4;stroke-dasharray:none;stroke-opacity:1;paint-order:fill markers stroke"
       d="M 8.5039062 0 A 8.5037242 8.5037242 0 0 0 0 8.5039062 L 0 17.007812 L 8.5039062 17.007812 A 8.5037242 8.5037242 0 0 0 17.007812 8.5039062 A 8.5037242 8.5037242 0 0 0 8.5039062 0 z M 8.625 1.890625 C 12.211938 1.890625 15.117188 4.7751434 15.117188 8.3339844 C 15.117188 11.892825 12.209841 14.777344 8.6230469 14.777344 C 7.484381 14.777344 6.4150648 14.487328 5.484375 13.976562 L 1.8886719 15.119141 L 3.0625 11.660156 C 2.4711929 10.689196 2.1308594 9.551408 2.1308594 8.3339844 C 2.1308594 4.7751434 5.0382057 1.890625 8.625 1.890625 z M 8.6230469 2.9160156 C 5.6122752 2.9160156 3.1640625 5.3467214 3.1640625 8.3339844 C 3.1640625 9.5195466 3.5514504 10.616701 4.2050781 11.509766 L 3.5214844 13.521484 L 5.6210938 12.855469 C 6.4831397 13.421491 7.515875 13.751953 8.625 13.751953 C 11.635329 13.751953 14.083984 11.321399 14.083984 8.3339844 C 14.083837 5.3467214 11.633671 2.9160156 8.6230469 2.9160156 z M 6.4375 5.390625 C 6.5436291 5.390625 6.6494379 5.40625 6.7421875 5.40625 C 6.8352395 5.40625 6.9689767 5.3539534 7.1015625 5.6699219 C 7.2341483 5.9860794 7.5521118 6.7631827 7.5917969 6.8417969 C 7.6318599 6.920789 7.6588357 7.0121166 7.6054688 7.1171875 C 7.5527065 7.2226363 7.5251361 7.2886389 7.4453125 7.3808594 C 7.365829 7.4730798 7.2787667 7.587526 7.2070312 7.6582031 C 7.1273966 7.7368173 7.0439691 7.8224845 7.1367188 7.9804688 C 7.229612 8.138642 7.5503049 8.6557117 8.0234375 9.0742188 C 8.6315068 9.6124991 9.1436919 9.7788077 9.3027344 9.8574219 C 9.4620415 9.936036 9.5555367 9.9238082 9.6484375 9.8183594 C 9.7414819 9.7129861 10.046366 9.357203 10.152344 9.1992188 C 10.258322 9.0416125 10.3638 9.0666052 10.509766 9.1191406 C 10.655277 9.1714493 11.438311 9.5541983 11.597656 9.6328125 C 11.756699 9.7121826 11.862205 9.7529735 11.902344 9.8183594 C 11.941437 9.8858023 11.942339 10.20047 11.810547 10.568359 C 11.677383 10.937014 11.027956 11.291903 10.736328 11.318359 C 10.444424 11.344816 10.444588 11.555841 8.8261719 10.923828 C 7.2079067 10.291362 6.18499 8.6441334 6.1054688 8.5390625 C 6.0256565 8.4336893 5.4570312 7.683472 5.4570312 6.90625 C 5.4570312 6.1291413 5.8678577 5.7458749 6.0136719 5.5878906 C 6.1595994 5.4295284 6.3313709 5.390625 6.4375 5.390625 z "
       transform="matrix(0.26458333,0,0,0.26458333,-73.348461,117.82787)"
       id="path4529-6" />
  </g>
</svg>
